<?xml version="1.0" encoding="UTF-8"?>
<svg width="112px" height="139px" viewBox="0 0 112 139" version="1.1" xmlns="http://www.w3.org/2000/svg" xmlns:xlink="http://www.w3.org/1999/xlink">
    <g id="Flamingo" stroke="none" stroke-width="1" fill="none" fill-rule="evenodd">
        <path id="Body" fill="#999999" d="M33.9916419,0 L34.4522488,0.00374512121 C49.6232608,0.250604695 61.8900959,12.669727 61.8900959,27.898454 L61.8900959,27.898454 L61.8862499,28.3650768 C61.7172494,38.6108324 55.9931423,47.5256136 47.6060269,52.2366107 L47.6060269,52.2366107 L47.0811259,52.5517088 C40.1592873,56.708106 36.2881456,59.08168 32.7164641,61.3017552 L32.1826139,61.6338189 C31.0293145,62.3516785 29.8931156,63.0619296 28.6795724,63.8205039 L28.6795724,63.8205039 L28.3865023,64.0036287 C25.149179,66.0264311 21.4465478,68.3381814 15.4889422,72.0055302 L15.4889422,72.0055302 L15.2522081,72.1829691 C12.1012365,74.6171228 12.3840193,77.4130285 12.8530863,78.8953296 L12.8530863,78.8953296 L12.9102499,79.0670654 C13.7712863,81.5368934 16.4276578,84.3385613 21.2171994,84.3385613 L21.2171994,84.3385613 L22.4846804,84.3385613 L22.55248,84.0251125 C23.9035752,77.9494085 27.6098394,70.9806651 36.7384812,66.1070143 L36.7384812,66.1070143 L37.2170553,65.8585158 C53.076612,57.8545834 75.4632152,69.2195187 84.3629747,74.331137 L84.3629747,74.331137 L84.6094236,74.4740288 C92.894,79.319132 116.055674,96.8998651 110.374711,96.8998651 L110.374711,96.8998651 L21.2171994,96.8834698 L20.8179963,96.8800818 C11.5218393,96.7221613 3.54557867,91.0570008 0.894624168,82.6813772 L0.894624168,82.6813772 L0.780632855,82.3089808 C-1.5303615,74.4873555 1.37081629,66.5997002 8.40870531,61.646238 L8.40870531,61.646238 L8.73156613,61.4343606 L41.4073513,41.3261851 L41.4111349,41.3350133 L41.7045711,41.1680854 C46.2702591,38.5040376 49.3451873,33.5555337 49.3451873,27.898454 L49.3451873,27.898454 L49.3418862,27.5778037 C49.1705098,19.2633412 42.3482518,12.7192381 33.9916419,12.5449085 L33.9916419,12.5449085 L33.5850952,12.5407433 C29.3680922,12.5436295 26.0223908,13.9912536 23.5301001,16.1384068 L8.5016687,16.1391463 C11.7677175,6.31101916 21.9253456,0 33.9916419,0 L33.9916419,0 Z M19.2615528,22.0521039 C18.9842042,22.7072263 18.7533416,23.3690641 18.5687318,24.0279077 L18.5687318,24.0279077 L18.5240466,24.193916 C17.3789883,28.6322344 18.7590431,38.2939103 28.5130973,41.0512489 L28.5130973,41.0512489 C28.2959056,41.0949432 22.1156127,42.3051831 17.0376652,39.5201824 L17.0376652,39.5201824 L16.6629859,39.3100093 C10.9754501,36.0457855 7.93458398,30.8778862 7.47417457,24.9851396 C7.39633383,23.9862975 7.38026966,23.0080108 7.42276007,22.0520861 Z"></path>
        <polygon id="Leg" fill="#999999" points="44 138 50 138 50 103 44 103"></polygon>
    </g>
</svg>